/* XPM */
static char *minecraft_stone[] = {
"64 64 4 1",
"a	c #7D7D7D",
"b	c #9B9B9B",
"c	c #6B6B6B",
"d	c #545454",
"aaaabbbbaaaaccccaaaabbbbaaaaccccaaaabbbbaaaaccccaaaabbbbaaaacccc",
"aaaabbbbaaaaccccaaaabbbbaaaaccccaaaabbbbaaaaccccaaaabbbbaaaacccc",
"aaaabbbbaaaaccccaaaabbbbaaaaccccaaaabbbbaaaaccccaaaabbbbaaaacccc",
"aaaabbbbaaaaccccaaaabbbbaaaaccccaaaabbbbaaaaccccaaaabbbbaaaacccc",
"ccccddddccccaaaaccccddddccccaaaaccccddddccccaaaaccccddddccccaaaa",
"ccccddddccccaaaaccccddddccccaaaaccccddddccccaaaaccccddddccccaaaa",
"ccccddddccccaaaaccccddddccccaaaaccccddddccccaaaaccccddddccccaaaa",
"ccccddddccccaaaaccccddddccccaaaaccccddddccccaaaaccccddddccccaaaa",
"aaaabbbbaaaaccccaaaabbbbaaaaccccaaaabbbbaaaaccccaaaabbbbaaaacccc",
"aaaabbbbaaaaccccaaaabbbbaaaaccccaaaabbbbaaaaccccaaaabbbbaaaacccc",
"aaaabbbbaaaaccccaaaabbbbaaaaccccaaaabbbbaaaaccccaaaabbbbaaaacccc",
"aaaabbbbaaaaccccaaaabbbbaaaaccccaaaabbbbaaaaccccaaaabbbbaaaacccc",
"ccccddddccccaaaaccccddddccccaaaaccccddddccccaaaaccccddddccccaaaa",
"ccccddddccccaaaaccccddddccccaaaaccccddddccccaaaaccccddddccccaaaa",
"ccccddddccccaaaaccccddddccccaaaaccccddddccccaaaaccccddddccccaaaa",
"ccccddddccccaaaaccccddddccccaaaaccccddddccccaaaaccccddddccccaaaa",
"aaaabbbbaaaaccccaaaabbbbaaaaccccaaaabbbbaaaaccccaaaabbbbaaaacccc",
"aaaabbbbaaaaccccaaaabbbbaaaaccccaaaabbbbaaaaccccaaaabbbbaaaacccc",
"aaaabbbbaaaaccccaaaabbbbaaaaccccaaaabbbbaaaaccccaaaabbbbaaaacccc",
"aaaabbbbaaaaccccaaaabbbbaaaaccccaaaabbbbaaaaccccaaaabbbbaaaacccc",
"ccccddddccccaaaaccccddddccccaaaaccccddddccccaaaaccccddddccccaaaa",
"ccccddddccccaaaaccccddddccccaaaaccccddddccccaaaaccccddddccccaaaa",
"ccccddddccccaaaaccccddddccccaaaaccccddddccccaaaaccccddddccccaaaa",
"ccccddddccccaaaaccccddddccccaaaaccccddddccccaaaaccccddddccccaaaa",
"aaaabbbbaaaaccccaaaabbbbaaaaccccaaaabbbbaaaaccccaaaabbbbaaaacccc",
"aaaabbbbaaaaccccaaaabbbbaaaaccccaaaabbbbaaaaccccaaaabbbbaaaacccc",
"aaaabbbbaaaaccccaaaabbbbaaaaccccaaaabbbbaaaaccccaaaabbbbaaaacccc",
"aaaabbbbaaaaccccaaaabbbbaaaaccccaaaabbbbaaaaccccaaaabbbbaaaacccc",
"ccccddddccccaaaaccccddddccccaaaaccccddddccccaaaaccccddddccccaaaa",
"ccccddddccccaaaaccccddddccccaaaaccccddddccccaaaaccccddddccccaaaa",
"ccccddddccccaaaaccccddddccccaaaaccccddddccccaaaaccccddddccccaaaa",
"ccccddddccccaaaaccccddddccccaaaaccccddddccccaaaaccccddddccccaaaa",
"aaaabbbbaaaaccccaaaabbbbaaaaccccaaaabbbbaaaaccccaaaabbbbaaaacccc",
"aaaabbbbaaaaccccaaaabbbbaaaaccccaaaabbbbaaaaccccaaaabbbbaaaacccc",
"aaaabbbbaaaaccccaaaabbbbaaaaccccaaaabbbbaaaaccccaaaabbbbaaaacccc",
"aaaabbbbaaaaccccaaaabbbbaaaaccccaaaabbbbaaaaccccaaaabbbbaaaacccc",
"ccccddddccccaaaaccccddddccccaaaaccccddddccccaaaaccccddddccccaaaa",
"ccccddddccccaaaaccccddddccccaaaaccccddddccccaaaaccccddddccccaaaa",
"ccccddddccccaaaaccccddddccccaaaaccccddddccccaaaaccccddddccccaaaa",
"ccccddddccccaaaaccccddddccccaaaaccccddddccccaaaaccccddddccccaaaa",
"aaaabbbbaaaaccccaaaabbbbaaaaccccaaaabbbbaaaaccccaaaabbbbaaaacccc",
"aaaabbbbaaaaccccaaaabbbbaaaaccccaaaabbbbaaaaccccaaaabbbbaaaacccc",
"aaaabbbbaaaaccccaaaabbbbaaaaccccaaaabbbbaaaaccccaaaabbbbaaaacccc",
"aaaabbbbaaaaccccaaaabbbbaaaaccccaaaabbbbaaaaccccaaaabbbbaaaacccc",
"ccccddddccccaaaaccccddddccccaaaaccccddddccccaaaaccccddddccccaaaa",
"ccccddddccccaaaaccccddddccccaaaaccccddddccccaaaaccccddddccccaaaa",
"ccccddddccccaaaaccccddddccccaaaaccccddddccccaaaaccccddddccccaaaa",
"ccccddddccccaaaaccccddddccccaaaaccccddddccccaaaaccccddddccccaaaa",
"aaaabbbbaaaaccccaaaabbbbaaaaccccaaaabbbbaaaaccccaaaabbbbaaaacccc",
"aaaabbbbaaaaccccaaaabbbbaaaaccccaaaabbbbaaaaccccaaaabbbbaaaacccc",
"aaaabbbbaaaaccccaaaabbbbaaaaccccaaaabbbbaaaaccccaaaabbbbaaaacccc",
"aaaabbbbaaaaccccaaaabbbbaaaaccccaaaabbbbaaaaccccaaaabbbbaaaacccc",
"ccccddddccccaaaaccccddddccccaaaaccccddddccccaaaaccccddddccccaaaa",
"ccccddddccccaaaaccccddddccccaaaaccccddddccccaaaaccccddddccccaaaa",
"ccccddddccccaaaaccccddddccccaaaaccccddddccccaaaaccccddddccccaaaa",
"ccccddddccccaaaaccccddddccccaaaaccccddddccccaaaaccccddddccccaaaa",
"aaaabbbbaaaaccccaaaabbbbaaaaccccaaaabbbbaaaaccccaaaabbbbaaaacccc",
"aaaabbbbaaaaccccaaaabbbbaaaaccccaaaabbbbaaaaccccaaaabbbbaaaacccc",
"aaaabbbbaaaaccccaaaabbbbaaaaccccaaaabbbbaaaaccccaaaabbbbaaaacccc",
"aaaabbbbaaaaccccaaaabbbbaaaaccccaaaabbbbaaaaccccaaaabbbbaaaacccc",
"ccccddddccccaaaaccccddddccccaaaaccccddddccccaaaaccccddddccccaaaa",
"ccccddddccccaaaaccccddddccccaaaaccccddddccccaaaaccccddddccccaaaa",
"ccccddddccccaaaaccccddddccccaaaaccccddddccccaaaaccccddddccccaaaa",
"ccccddddccccaaaaccccddddccccaaaaccccddddccccaaaaccccddddccccaaaa"
};
