/* XPM */
static char *minecraft_grass[] = {
"64 64 4 1",
"a	c #567D46",
"b	c #6B9654",
"c	c #7A5C3E",
"d	c #654A2F",
"bbbbbbbbbbbbbbbbbbbbbbbbbbbbbbbbbbbbbbbbbbbbbbbbbbbbbbbbbbbbbbbb",
"bbbbbbbbbbbbbbbbbbbbbbbbbbbbbbbbbbbbbbbbbbbbbbbbbbbbbbbbbbbbbbbb",
"aabbbbbbbbbbbbbbbbbbbbbbbbbbbbbbbbbbbbbbbbbbbbbbbbbbbbbbbbbbbbaa",
"aabbbbbbbbbbbbbbbbbbbbbbbbbbbbbbbbbbbbbbbbbbbbbbbbbbbbbbbbbbbbaa",
"bbbbbbbbbbbbbbbbbbbbbbbbbbbbbbbbbbbbbbbbbbbbbbbbbbbbbbbbbbbbbbbb",
"bbbbbbbbbbbbbbbbbbbbbbbbbbbbbbbbbbbbbbbbbbbbbbbbbbbbbbbbbbbbbbbb",
"aabbbbbbbbbbbbbbbbbbbbbbbbbbbbbbbbbbbbbbbbbbbbbbbbbbbbbbbbbbbbaa",
"aabbbbbbbbbbbbbbbbbbbbbbbbbbbbbbbbbbbbbbbbbbbbbbbbbbbbbbbbbbbbaa",
"cccccccccccccccccccccccccccccccccccccccccccccccccccccccccccccccc",
"cccccccccccccccccccccccccccccccccccccccccccccccccccccccccccccccc",
"ddccccccccccccccccccccccccccccccccccccccccccccccccccccccccccccdd",
"ddccccccccccccccccccccccccccccccccccccccccccccccccccccccccccccdd",
"cccccccccccccccccccccccccccccccccccccccccccccccccccccccccccccccc",
"cccccccccccccccccccccccccccccccccccccccccccccccccccccccccccccccc",
"ddccccccccccccccccccccccccccccccccccccccccccccccccccccccccccccdd",
"ddccccccccccccccccccccccccccccccccccccccccccccccccccccccccccccdd",
"cccccccccccccccccccccccccccccccccccccccccccccccccccccccccccccccc",
"cccccccccccccccccccccccccccccccccccccccccccccccccccccccccccccccc",
"ddccccccccccccccccccccccccccccccccccccccccccccccccccccccccccccdd",
"ddccccccccccccccccccccccccccccccccccccccccccccccccccccccccccccdd",
"cccccccccccccccccccccccccccccccccccccccccccccccccccccccccccccccc",
"cccccccccccccccccccccccccccccccccccccccccccccccccccccccccccccccc",
"ddccccccccccccccccccccccccccccccccccccccccccccccccccccccccccccdd",
"ddccccccccccccccccccccccccccccccccccccccccccccccccccccccccccccdd",
"cccccccccccccccccccccccccccccccccccccccccccccccccccccccccccccccc",
"cccccccccccccccccccccccccccccccccccccccccccccccccccccccccccccccc",
"ddccccccccccccccccccccccccccccccccccccccccccccccccccccccccccccdd",
"ddccccccccccccccccccccccccccccccccccccccccccccccccccccccccccccdd",
"cccccccccccccccccccccccccccccccccccccccccccccccccccccccccccccccc",
"cccccccccccccccccccccccccccccccccccccccccccccccccccccccccccccccc",
"ddccccccccccccccccccccccccccccccccccccccccccccccccccccccccccccdd",
"ddccccccccccccccccccccccccccccccccccccccccccccccccccccccccccccdd",
"cccccccccccccccccccccccccccccccccccccccccccccccccccccccccccccccc",
"cccccccccccccccccccccccccccccccccccccccccccccccccccccccccccccccc",
"ddccccccccccccccccccccccccccccccccccccccccccccccccccccccccccccdd",
"ddccccccccccccccccccccccccccccccccccccccccccccccccccccccccccccdd",
"cccccccccccccccccccccccccccccccccccccccccccccccccccccccccccccccc",
"cccccccccccccccccccccccccccccccccccccccccccccccccccccccccccccccc",
"ddccccccccccccccccccccccccccccccccccccccccccccccccccccccccccccdd",
"ddccccccccccccccccccccccccccccccccccccccccccccccccccccccccccccdd",
"cccccccccccccccccccccccccccccccccccccccccccccccccccccccccccccccc",
"cccccccccccccccccccccccccccccccccccccccccccccccccccccccccccccccc",
"ddccccccccccccccccccccccccccccccccccccccccccccccccccccccccccccdd",
"ddccccccccccccccccccccccccccccccccccccccccccccccccccccccccccccdd",
"cccccccccccccccccccccccccccccccccccccccccccccccccccccccccccccccc",
"cccccccccccccccccccccccccccccccccccccccccccccccccccccccccccccccc",
"ddccccccccccccccccccccccccccccccccccccccccccccccccccccccccccccdd",
"ddccccccccccccccccccccccccccccccccccccccccccccccccccccccccccccdd",
"cccccccccccccccccccccccccccccccccccccccccccccccccccccccccccccccc",
"cccccccccccccccccccccccccccccccccccccccccccccccccccccccccccccccc",
"ddccccccccccccccccccccccccccccccccccccccccccccccccccccccccccccdd",
"ddccccccccccccccccccccccccccccccccccccccccccccccccccccccccccccdd",
"cccccccccccccccccccccccccccccccccccccccccccccccccccccccccccccccc",
"cccccccccccccccccccccccccccccccccccccccccccccccccccccccccccccccc",
"ddccccccccccccccccccccccccccccccccccccccccccccccccccccccccccccdd",
"ddccccccccccccccccccccccccccccccccccccccccccccccccccccccccccccdd",
"cccccccccccccccccccccccccccccccccccccccccccccccccccccccccccccccc",
"cccccccccccccccccccccccccccccccccccccccccccccccccccccccccccccccc",
"ddccccccccccccccccccccccccccccccccccccccccccccccccccccccccccccdd",
"ddccccccccccccccccccccccccccccccccccccccccccccccccccccccccccccdd",
"cccccccccccccccccccccccccccccccccccccccccccccccccccccccccccccccc",
"cccccccccccccccccccccccccccccccccccccccccccccccccccccccccccccccc",
"ddccccccccccccccccccccccccccccccccccccccccccccccccccccccccccccdd",
"ddccccccccccccccccccccccccccccccccccccccccccccccccccccccccccccdd"
};
