/* XPM */
static char * trippy_west_xpm[] = {
"64 64 8 1",
" 	c #FF00FF",
".	c #FF66FF",
"+	c #9900FF",
"@	c #CC00FF",
"#	c #6600CC",
"$	c #9933FF",
"%	c #CC66FF",
"&	c #FF99FF",
"@@@@@@@@&&&&&&&&........++++++++########$$$$$$$$%%%%%%%%@@@@@@@@",
"@@@@@@@@&&&&&&&&........++++++++########$$$$$$$$%%%%%%%%@@@@@@@@",
"&&&&&&&&........++++++++########$$$$$$$$%%%%%%%%@@@@@@@@&&&&&&&&",
"&&&&&&&&........++++++++########$$$$$$$$%%%%%%%%@@@@@@@@&&&&&&&&",
"........++++++++########$$$$$$$$%%%%%%%%@@@@@@@@&&&&&&&&........",
"........++++++++########$$$$$$$$%%%%%%%%@@@@@@@@&&&&&&&&........",
"++++++++########$$$$$$$$%%%%%%%%@@@@@@@@&&&&&&&&........++++++++",
"++++++++########$$$$$$$$%%%%%%%%@@@@@@@@&&&&&&&&........++++++++",
"########$$$$$$$$%%%%%%%%@@@@@@@@&&&&&&&&........++++++++########",
"########$$$$$$$$%%%%%%%%@@@@@@@@&&&&&&&&........++++++++########",
"$$$$$$$$%%%%%%%%@@@@@@@@&&&&&&&&........++++++++########$$$$$$$$",
"$$$$$$$$%%%%%%%%@@@@@@@@&&&&&&&&........++++++++########$$$$$$$$",
"%%%%%%%%@@@@@@@@&&&&&&&&........++++++++########$$$$$$$$%%%%%%%%",
"%%%%%%%%@@@@@@@@&&&&&&&&........++++++++########$$$$$$$$%%%%%%%%",
"@@@@@@@@&&&&&&&&........++++++++########$$$$$$$$%%%%%%%%@@@@@@@@",
"@@@@@@@@&&&&&&&&........++++++++########$$$$$$$$%%%%%%%%@@@@@@@@",
"&&&&&&&&........++++++++########$$$$$$$$%%%%%%%%@@@@@@@@&&&&&&&&",
"&&&&&&&&........++++++++########$$$$$$$$%%%%%%%%@@@@@@@@&&&&&&&&",
"........++++++++########$$$$$$$$%%%%%%%%@@@@@@@@&&&&&&&&........",
"........++++++++########$$$$$$$$%%%%%%%%@@@@@@@@&&&&&&&&........",
"++++++++########$$$$$$$$%%%%%%%%@@@@@@@@&&&&&&&&........++++++++",
"++++++++########$$$$$$$$%%%%%%%%@@@@@@@@&&&&&&&&........++++++++",
"########$$$$$$$$%%%%%%%%@@@@@@@@&&&&&&&&........++++++++########",
"########$$$$$$$$%%%%%%%%@@@@@@@@&&&&&&&&........++++++++########",
"$$$$$$$$%%%%%%%%@@@@@@@@&&&&&&&&........++++++++########$$$$$$$$",
"$$$$$$$$%%%%%%%%@@@@@@@@&&&&&&&&........++++++++########$$$$$$$$",
"%%%%%%%%@@@@@@@@&&&&&&&&........++++++++########$$$$$$$$%%%%%%%%",
"%%%%%%%%@@@@@@@@&&&&&&&&........++++++++########$$$$$$$$%%%%%%%%",
"@@@@@@@@&&&&&&&&........++++++++########$$$$$$$$%%%%%%%%@@@@@@@@",
"@@@@@@@@&&&&&&&&........++++++++########$$$$$$$$%%%%%%%%@@@@@@@@",
"&&&&&&&&........++++++++########$$$$$$$$%%%%%%%%@@@@@@@@&&&&&&&&",
"&&&&&&&&........++++++++########$$$$$$$$%%%%%%%%@@@@@@@@&&&&&&&&",
"........++++++++########$$$$$$$$%%%%%%%%@@@@@@@@&&&&&&&&........",
"........++++++++########$$$$$$$$%%%%%%%%@@@@@@@@&&&&&&&&........",
"++++++++########$$$$$$$$%%%%%%%%@@@@@@@@&&&&&&&&........++++++++",
"++++++++########$$$$$$$$%%%%%%%%@@@@@@@@&&&&&&&&........++++++++",
"########$$$$$$$$%%%%%%%%@@@@@@@@&&&&&&&&........++++++++########",
"########$$$$$$$$%%%%%%%%@@@@@@@@&&&&&&&&........++++++++########",
"$$$$$$$$%%%%%%%%@@@@@@@@&&&&&&&&........++++++++########$$$$$$$$",
"$$$$$$$$%%%%%%%%@@@@@@@@&&&&&&&&........++++++++########$$$$$$$$",
"%%%%%%%%@@@@@@@@&&&&&&&&........++++++++########$$$$$$$$%%%%%%%%",
"%%%%%%%%@@@@@@@@&&&&&&&&........++++++++########$$$$$$$$%%%%%%%%",
"@@@@@@@@&&&&&&&&........++++++++########$$$$$$$$%%%%%%%%@@@@@@@@",
"@@@@@@@@&&&&&&&&........++++++++########$$$$$$$$%%%%%%%%@@@@@@@@",
"&&&&&&&&........++++++++########$$$$$$$$%%%%%%%%@@@@@@@@&&&&&&&&",
"&&&&&&&&........++++++++########$$$$$$$$%%%%%%%%@@@@@@@@&&&&&&&&",
"........++++++++########$$$$$$$$%%%%%%%%@@@@@@@@&&&&&&&&........",
"........++++++++########$$$$$$$$%%%%%%%%@@@@@@@@&&&&&&&&........",
"++++++++########$$$$$$$$%%%%%%%%@@@@@@@@&&&&&&&&........++++++++",
"++++++++########$$$$$$$$%%%%%%%%@@@@@@@@&&&&&&&&........++++++++",
"########$$$$$$$$%%%%%%%%@@@@@@@@&&&&&&&&........++++++++########",
"########$$$$$$$$%%%%%%%%@@@@@@@@&&&&&&&&........++++++++########",
"$$$$$$$$%%%%%%%%@@@@@@@@&&&&&&&&........++++++++########$$$$$$$$",
"$$$$$$$$%%%%%%%%@@@@@@@@&&&&&&&&........++++++++########$$$$$$$$",
"%%%%%%%%@@@@@@@@&&&&&&&&........++++++++########$$$$$$$$%%%%%%%%",
"%%%%%%%%@@@@@@@@&&&&&&&&........++++++++########$$$$$$$$%%%%%%%%",
"@@@@@@@@&&&&&&&&........++++++++########$$$$$$$$%%%%%%%%@@@@@@@@",
"@@@@@@@@&&&&&&&&........++++++++########$$$$$$$$%%%%%%%%@@@@@@@@",
"&&&&&&&&........++++++++########$$$$$$$$%%%%%%%%@@@@@@@@&&&&&&&&",
"&&&&&&&&........++++++++########$$$$$$$$%%%%%%%%@@@@@@@@&&&&&&&&",
"........++++++++########$$$$$$$$%%%%%%%%@@@@@@@@&&&&&&&&........",
"........++++++++########$$$$$$$$%%%%%%%%@@@@@@@@&&&&&&&&........",
"++++++++########$$$$$$$$%%%%%%%%@@@@@@@@&&&&&&&&........++++++++",
"++++++++########$$$$$$$$%%%%%%%%@@@@@@@@&&&&&&&&........++++++++"};
